<svg width="52" height="14" viewBox="0 0 52 14" fill="none" xmlns="http://www.w3.org/2000/svg">
<g clip-path="url(#clip0_103_24544)" filter="url(#filter0_d_103_24544)">
<path d="M1 12V0H50.7143V12H1ZM2.1883 10.7928H49.5164V1.25063H2.1883V10.7921V10.7928Z" fill="#EBEBEB"/>
<path d="M36.7346 5.74048C36.7269 7.94585 34.9502 9.48316 32.8102 9.13664C31.5458 8.93149 30.7425 8.24174 30.4995 7.02201C30.1119 5.07506 31.2861 3.18464 33.2381 2.95516C33.7753 2.89204 34.3522 2.91769 34.8747 3.05248C35.868 3.30892 36.8081 4.25248 36.7346 5.74114V5.74048ZM35.0928 5.85555C35.0998 4.98958 34.5402 4.38464 33.728 4.3807C32.7961 4.37675 32.0594 5.17237 32.053 6.19023C32.0479 7.05423 32.6152 7.67823 33.4114 7.68284C34.3701 7.68875 35.0839 6.91286 35.0922 5.85555H35.0928Z" fill="#EBEBEB"/>
<path d="M13.4934 8.98719H11.9028C12.0211 8.18698 12.1362 7.40648 12.2584 6.57865C11.6201 6.57865 11.026 6.57076 10.4331 6.58917C10.3659 6.59114 10.261 6.73054 10.2457 6.8193C10.1235 7.52944 10.0193 8.24221 9.90608 8.97865H8.31934C8.62441 6.99158 8.92628 5.02029 9.23135 3.03257H10.82C10.7036 3.79399 10.5911 4.53569 10.474 5.30303H12.463C12.5814 4.54818 12.699 3.79728 12.8193 3.03125H14.4111C14.1048 5.02161 13.8004 6.9975 13.494 8.98785L13.4934 8.98719Z" fill="#EBEBEB"/>
<path d="M25.0578 5.94415C25.7319 6.9778 26.3702 7.95621 27.0494 8.99708C26.4079 8.99708 25.8291 9.00366 25.2503 8.98853C25.1838 8.98656 25.1064 8.8761 25.0585 8.79917C24.6376 8.12782 24.2226 7.45188 23.8043 6.7779C23.7493 6.6898 23.6879 6.60563 23.583 6.45177C23.4768 7.1356 23.3719 7.74119 23.2907 8.35007C23.2037 9.003 23.2133 9.00497 22.5802 9.00168C22.2924 9.00037 22.0046 8.99643 21.7174 8.99182C21.6989 8.99182 21.6797 8.97473 21.624 8.94777C21.9246 6.98897 22.2265 5.01834 22.5303 3.03325H24.1138C23.9898 3.83149 23.8689 4.60541 23.7486 5.37933C23.7749 5.40366 23.8011 5.42799 23.8273 5.45297C23.8734 5.3721 23.9066 5.2807 23.9661 5.21297C24.559 4.53834 25.1506 3.8624 25.7588 3.20223C25.8534 3.09966 26.0255 3.02601 26.1649 3.02075C26.7341 3.00037 27.3046 3.01221 27.9128 3.01221C26.9343 4.01692 25.9954 4.98086 25.0578 5.94349V5.94415Z" fill="#EBEBEB"/>
<path d="M48.1714 3.01295C47.2044 4.00582 46.2668 4.96845 45.3254 5.93437C46.0052 6.97656 46.6429 7.95432 47.3233 8.99782C46.687 8.99782 46.1101 9.00571 45.5332 8.98796C45.459 8.98599 45.3714 8.86434 45.3183 8.77952C44.9084 8.12659 44.5048 7.46906 44.0993 6.81349C44.0373 6.71355 43.974 6.61426 43.8652 6.44133C43.7789 6.96275 43.7034 7.40396 43.6337 7.84648C43.5845 8.15947 43.5563 8.47574 43.4911 8.78478C43.4738 8.86829 43.3581 8.9873 43.2832 8.99059C42.8381 9.00966 42.3923 9.00045 41.8896 9.00045C42.1986 6.98774 42.5017 5.01054 42.8061 3.02938H44.3884C44.265 3.82303 44.1441 4.59497 44.0091 5.46095C44.2739 5.16769 44.485 4.93623 44.6935 4.70215C45.1316 4.209 45.5588 3.70401 46.0123 3.22599C46.1216 3.11092 46.3135 3.02873 46.4708 3.02215C47.0298 2.99782 47.59 3.01295 48.1714 3.01295V3.01295Z" fill="#EBEBEB"/>
<path d="M41.6461 3.57494C41.4139 3.98589 41.1965 4.36989 40.9784 4.75521C40.7481 4.60661 40.5524 4.45077 40.3331 4.34951C40.1757 4.27653 39.9749 4.22392 39.8137 4.25943C39.6628 4.29296 39.4748 4.42842 39.4223 4.5665C39.3814 4.67433 39.4844 4.90381 39.5918 4.99455C39.8016 5.1734 40.0568 5.29768 40.2972 5.43707C41.1709 5.94337 41.4939 6.51083 41.3704 7.33011C41.2278 8.27894 40.6247 8.92463 39.6929 9.10677C38.7649 9.28825 37.92 9.12847 37.1979 8.45187C36.9914 8.25855 36.9217 8.1014 37.1238 7.85154C37.3463 7.57537 37.5305 7.26568 37.7448 6.95006C37.9219 7.10261 38.0844 7.2545 38.259 7.38995C38.5487 7.61614 38.8832 7.75685 39.2413 7.67795C39.4217 7.6385 39.6283 7.49647 39.7236 7.338C39.8393 7.14535 39.7184 6.93231 39.5298 6.80803C39.2618 6.63181 38.9913 6.45822 38.7124 6.30107C38.0581 5.93417 37.6559 5.42326 37.771 4.60858C37.8899 3.76233 38.4393 3.13176 39.2375 2.94436C40.1278 2.73526 40.9183 2.96014 41.6454 3.57428L41.6461 3.57494Z" fill="#EBEBEB"/>
<path d="M16.8541 5.37404H18.5041C18.4389 5.82643 18.3781 6.24856 18.3142 6.68977H16.6475C16.5938 7.02051 16.5439 7.33021 16.4876 7.6787H18.2784C18.2119 8.12517 18.1511 8.53481 18.0859 8.97339H14.709C15.0141 6.98435 15.3178 5.0078 15.621 3.03125H18.9921C18.9282 3.46193 18.8776 3.87289 18.7964 4.27662C18.783 4.34435 18.6346 4.42522 18.5457 4.42851C18.1306 4.44429 17.7149 4.44429 17.2998 4.43246C17.0773 4.42588 16.934 4.45678 16.941 4.74215C16.9455 4.93547 16.8892 5.1301 16.8528 5.37404H16.8541Z" fill="#EBEBEB"/>
<path d="M8.43825 3.03076C8.37365 3.46079 8.32249 3.87109 8.24062 4.27482C8.22591 4.34583 8.08457 4.43328 7.99759 4.43788C7.6695 4.45695 7.33948 4.44578 6.98197 4.44578C6.74533 5.96862 6.51189 7.47306 6.27653 8.98736H4.69106C4.92322 7.47503 5.15283 5.98177 5.38755 4.45235H4.0918C4.1711 3.95591 4.24401 3.50024 4.31884 3.03076H8.43825Z" fill="#EBEBEB"/>
<path d="M27.3867 9.00162C27.6969 6.9922 28.0001 5.02354 28.307 3.03516H29.9091C29.8254 3.61247 29.748 4.17072 29.6623 4.72831C29.4589 6.05324 29.244 7.37686 29.0521 8.7031C29.0176 8.93981 28.9421 9.01609 28.7138 9.00688C28.2808 8.98979 27.8459 9.00162 27.3874 9.00162H27.3867Z" fill="#EBEBEB"/>
</g>
<defs>
<filter id="filter0_d_103_24544" x="0.262062" y="0" width="51.1902" height="13.4759" filterUnits="userSpaceOnUse" color-interpolation-filters="sRGB">
<feFlood flood-opacity="0" result="BackgroundImageFix"/>
<feColorMatrix in="SourceAlpha" type="matrix" values="0 0 0 0 0 0 0 0 0 0 0 0 0 0 0 0 0 0 127 0" result="hardAlpha"/>
<feOffset dy="0.737938"/>
<feGaussianBlur stdDeviation="0.368969"/>
<feComposite in2="hardAlpha" operator="out"/>
<feColorMatrix type="matrix" values="0 0 0 0 0 0 0 0 0 0 0 0 0 0 0 0 0 0 0.1 0"/>
<feBlend mode="normal" in2="BackgroundImageFix" result="effect1_dropShadow_103_24544"/>
<feBlend mode="normal" in="SourceGraphic" in2="effect1_dropShadow_103_24544" result="shape"/>
</filter>
<clipPath id="clip0_103_24544">
<rect width="49.7143" height="12" fill="white" transform="translate(1)"/>
</clipPath>
</defs>
</svg>
