<svg width="62" height="17" viewBox="0 0 62 17" fill="none" xmlns="http://www.w3.org/2000/svg">
<g style="mix-blend-mode:luminosity" clip-path="url(#clip0_103_24724)" filter="url(#filter0_d_103_24724)">
<path d="M1 14.4828V0H61V14.4828H1ZM2.43416 13.0258H59.5543V1.50938H2.43416V13.025V13.0258Z" fill="#595959"/>
<path d="M44.1282 6.92803C44.1189 9.58968 41.9747 11.4451 39.3919 11.0268C37.8659 10.7793 36.8964 9.94679 36.6031 8.47471C36.1354 6.12493 37.5525 3.8434 39.9083 3.56644C40.5567 3.49026 41.2529 3.52121 41.8836 3.68389C43.0823 3.99339 44.217 5.13217 44.1282 6.92882V6.92803ZM42.1468 7.06691C42.1553 6.02177 41.4799 5.29168 40.4996 5.28692C39.3749 5.28215 38.4857 6.24238 38.478 7.47084C38.4718 8.5136 39.1565 9.2667 40.1175 9.27225C41.2746 9.2794 42.136 8.34298 42.146 7.06691H42.1468Z" fill="#595959"/>
<path d="M16.078 10.8464H14.1584C14.3012 9.88063 14.4401 8.93866 14.5875 7.93955C13.8172 7.93955 13.1001 7.93002 12.3846 7.95224C12.3035 7.95462 12.1769 8.12286 12.1584 8.22999C12.011 9.08706 11.8852 9.94729 11.7485 10.8361H9.8335C10.2017 8.43791 10.566 6.05877 10.9342 3.65979H12.8516C12.7111 4.57875 12.5752 5.4739 12.434 6.40001H14.8345C14.9773 5.48898 15.1193 4.58272 15.2645 3.6582H17.1857C16.8159 6.06036 16.4485 8.44505 16.0788 10.8472L16.078 10.8464Z" fill="#595959"/>
<path d="M30.0349 7.17403C30.8484 8.42153 31.6188 9.60237 32.4385 10.8586C31.6643 10.8586 30.9658 10.8665 30.2672 10.8483C30.1869 10.8459 30.0935 10.7126 30.0356 10.6197C29.5277 9.80949 29.0268 8.9937 28.522 8.18028C28.4556 8.07394 28.3815 7.97236 28.2549 7.78667C28.1268 8.61199 28.0002 9.34287 27.9022 10.0777C27.7972 10.8657 27.8088 10.8681 27.0446 10.8642C26.6972 10.8626 26.3499 10.8578 26.0033 10.8522C25.9809 10.8522 25.9578 10.8316 25.8906 10.7991C26.2534 8.43502 26.6177 6.05667 26.9844 3.66087H28.8956C28.7458 4.62427 28.5999 5.55831 28.4548 6.49234C28.4865 6.52171 28.5181 6.55107 28.5498 6.58122C28.6053 6.48362 28.6455 6.37331 28.7173 6.29157C29.4328 5.47736 30.1468 4.66157 30.8808 3.86482C30.9951 3.74102 31.2027 3.65214 31.371 3.64579C32.058 3.62119 32.7465 3.63547 33.4805 3.63547C32.2996 4.84806 31.1664 6.01144 30.0349 7.17323V7.17403Z" fill="#595959"/>
<path d="M57.931 3.63598C56.764 4.83428 55.6324 5.99607 54.4962 7.16184C55.3167 8.41965 56.0862 9.5997 56.9075 10.8591C56.1395 10.8591 55.4433 10.8686 54.747 10.8472C54.6575 10.8448 54.5517 10.698 54.4877 10.5956C53.9929 9.80762 53.5058 9.01404 53.0165 8.22285C52.9416 8.10222 52.8652 7.98239 52.734 7.77368C52.6297 8.40299 52.5387 8.93548 52.4545 9.46955C52.3951 9.8473 52.3611 10.229 52.2824 10.602C52.2616 10.7028 52.1219 10.8464 52.0315 10.8504C51.4943 10.8734 50.9563 10.8623 50.3496 10.8623C50.7224 8.43314 51.0883 6.04686 51.4557 3.65582H53.3654C53.2164 4.61366 53.0705 5.54532 52.9076 6.59046C53.2272 6.23653 53.4819 5.95719 53.7335 5.67467C54.2623 5.07949 54.7779 4.47003 55.3252 3.8931C55.4572 3.75422 55.6887 3.65502 55.8786 3.64709C56.5532 3.61773 57.2294 3.63598 57.931 3.63598Z" fill="#595959"/>
<path d="M50.0555 4.31443C49.7753 4.81041 49.5128 5.27386 49.2496 5.73889C48.9717 5.55955 48.7355 5.37147 48.4708 5.24926C48.2809 5.16117 48.0385 5.09769 47.844 5.14054C47.6619 5.18101 47.4349 5.34449 47.3716 5.51114C47.3222 5.64128 47.4465 5.91824 47.5762 6.02776C47.8294 6.24361 48.1373 6.3936 48.4276 6.56183C49.482 7.17289 49.8718 7.85774 49.7228 8.84654C49.5507 9.99167 48.8228 10.771 47.6981 10.9908C46.5781 11.2098 45.5585 11.017 44.687 10.2004C44.4377 9.96707 44.3536 9.7774 44.5975 9.47584C44.8661 9.14254 45.0884 8.76877 45.347 8.38785C45.5608 8.57196 45.7568 8.75528 45.9676 8.91875C46.3172 9.19174 46.7209 9.36157 47.1532 9.26634C47.3709 9.21872 47.6202 9.04731 47.7352 8.85606C47.8749 8.62354 47.729 8.36642 47.5013 8.21644C47.1779 8.00376 46.8514 7.79426 46.5148 7.60459C45.7252 7.16178 45.2397 6.54517 45.3786 5.56193C45.5222 4.5406 46.1852 3.77956 47.1486 3.55339C48.223 3.30103 49.1771 3.57243 50.0547 4.31363L50.0555 4.31443Z" fill="#595959"/>
<path d="M20.1343 6.48571H22.1258C22.047 7.03169 21.9737 7.54117 21.8965 8.07366H19.885C19.8201 8.47283 19.7599 8.8466 19.692 9.2672H21.8533C21.773 9.80604 21.6997 10.3004 21.621 10.8297H17.5454C17.9136 8.42918 18.2802 6.04369 18.6461 3.6582H22.7147C22.6375 4.178 22.5765 4.67398 22.4785 5.16124C22.4623 5.24297 22.2832 5.34058 22.1759 5.34455C21.675 5.3636 21.1733 5.3636 20.6723 5.34931C20.4037 5.34138 20.2308 5.37868 20.2393 5.72309C20.2447 5.9564 20.1768 6.1913 20.1328 6.48571H20.1343Z" fill="#595959"/>
<path d="M9.97716 3.65771C9.8992 4.17671 9.83745 4.6719 9.73865 5.15916C9.7209 5.24487 9.55031 5.35041 9.44533 5.35597C9.04936 5.37898 8.65107 5.36549 8.21958 5.36549C7.93399 7.20341 7.65225 9.01911 7.3682 10.8467H5.4547C5.73489 9.02149 6.012 7.21928 6.29528 5.37343H4.73145C4.82716 4.77428 4.91515 4.22433 5.00546 3.65771H9.97716Z" fill="#595959"/>
<path d="M32.8462 10.864C33.2206 8.43883 33.5864 6.06286 33.9569 3.66309H35.8905C35.7894 4.35985 35.696 5.03359 35.5926 5.70654C35.3471 7.3056 35.0877 8.90307 34.8562 10.5037C34.8145 10.7894 34.7234 10.8815 34.4478 10.8703C33.9253 10.8497 33.4004 10.864 32.847 10.864H32.8462Z" fill="#595959"/>
</g>
<defs>
<filter id="filter0_d_103_24724" x="0.109386" y="0" width="61.7812" height="16.2641" filterUnits="userSpaceOnUse" color-interpolation-filters="sRGB">
<feFlood flood-opacity="0" result="BackgroundImageFix"/>
<feColorMatrix in="SourceAlpha" type="matrix" values="0 0 0 0 0 0 0 0 0 0 0 0 0 0 0 0 0 0 127 0" result="hardAlpha"/>
<feOffset dy="0.890614"/>
<feGaussianBlur stdDeviation="0.445307"/>
<feComposite in2="hardAlpha" operator="out"/>
<feColorMatrix type="matrix" values="0 0 0 0 0 0 0 0 0 0 0 0 0 0 0 0 0 0 0.1 0"/>
<feBlend mode="normal" in2="BackgroundImageFix" result="effect1_dropShadow_103_24724"/>
<feBlend mode="normal" in="SourceGraphic" in2="effect1_dropShadow_103_24724" result="shape"/>
</filter>
<clipPath id="clip0_103_24724">
<rect width="60" height="14.4828" fill="white" transform="translate(1)"/>
</clipPath>
</defs>
</svg>
